<svg width="380" height="380" viewBox="0 0 380 380" fill="none" xmlns="http://www.w3.org/2000/svg">
<rect width="380" height="380" rx="70" fill="#0AA146"/>
<path d="M190 318V138" stroke="white" stroke-width="17" stroke-linecap="round"/>
<path d="M127 217C161.794 217 190 244.622 190 280" stroke="white" stroke-width="17" stroke-linecap="round"/>
<path d="M127 217C127 251.219 155.206 280 190 280" stroke="white" stroke-width="17" stroke-linecap="round"/>
<path d="M127 171C161.794 171 190 198.622 190 234" stroke="white" stroke-width="17" stroke-linecap="round"/>
<path d="M127 171C127 205.219 155.206 234 190 234" stroke="white" stroke-width="17" stroke-linecap="round"/>
<path d="M127 125C161.794 125 190 152.622 190 188" stroke="white" stroke-width="17" stroke-linecap="round"/>
<path d="M127 125C127 159.219 155.206 188 190 188" stroke="white" stroke-width="17" stroke-linecap="round"/>
<path d="M253 217C218.206 217 190 244.622 190 280" stroke="white" stroke-width="17" stroke-linecap="round"/>
<path d="M253 217C253 251.219 224.794 280 190 280" stroke="white" stroke-width="17" stroke-linecap="round"/>
<path d="M253 171C218.206 171 190 198.622 190 234" stroke="white" stroke-width="17" stroke-linecap="round"/>
<path d="M253 171C253 205.219 224.794 234 190 234" stroke="white" stroke-width="17" stroke-linecap="round"/>
<path d="M253 125C218.206 125 190 152.622 190 188" stroke="white" stroke-width="17" stroke-linecap="round"/>
<path d="M253 125C253 159.219 224.794 188 190 188" stroke="white" stroke-width="17" stroke-linecap="round"/>
<path d="M190 62.0001C159.845 83.1237 159.338 117.017 190 138.495" stroke="white" stroke-width="17" stroke-linecap="round"/>
<path d="M189.999 62.0006C219.656 82.7752 220.154 117.372 189.999 138.496" stroke="white" stroke-width="17" stroke-linecap="round"/>
</svg>
